<svg width="335" height="52" viewBox="0 0 335 52" fill="none" xmlns="http://www.w3.org/2000/svg">
								<path d="M37.0666 50.736H13.9102L21.4168 29.5664H37.0666L40.798 40.294L37.0666 50.736Z" fill="#E84B37"></path>
								<path d="M55.0271 24.1769H31.8706L39.3699 3H55.0271L58.7585 13.7276L55.0271 24.1769Z" fill="#E84B37"></path>
								<path d="M23.1565 24.1769H0L7.50665 3H23.1565L26.8879 13.7276L23.1565 24.1769Z" fill="#C59368"></path>
								<path d="M72.7912 3.05243L56 50.8254H69.0101L72.2799 40.0942H86.8366L90.1064 50.8254H103.116L86.2621 3.05243H72.7912ZM83.775 29.5649H75.4614C77.2605 23.7195 78.6177 19.1809 79.5709 15.9804C80.2526 18.1961 81.6603 22.7285 83.775 29.5649Z" fill="#2A2A36"></path>
								<path d="M116.803 34.3372C116.702 34.6402 116.601 34.9684 116.512 35.2525C116.424 34.9432 116.329 34.6212 116.235 34.3309L109.291 13.8405H96.7163L110.812 50.8254H122.175L136.264 13.8405H123.721L116.803 34.3372Z" fill="#2A2A36"></path>
								<path d="M156.692 41.4324C155.921 41.4891 155.157 41.2649 154.539 40.8011C154.279 40.5367 154.082 40.2175 153.962 39.8668C153.842 39.5161 153.802 39.143 153.845 38.7748V23.4291H163.503V13.8405H153.845V6.50534H145.708L142.842 14.194L137.432 17.4765V23.4291H141.933V38.7748C141.933 42.8843 142.905 46.0468 144.83 48.1741C146.756 50.3015 149.88 51.444 153.984 51.444C157.114 51.5267 160.227 50.9548 163.124 49.7649L163.875 49.4303V39.8985L162.234 40.4098C160.446 41.0192 158.579 41.3637 156.692 41.4324Z" fill="#2A2A36"></path>
								<path d="M193.657 15.5196C190.787 13.9378 187.553 13.1368 184.277 13.1966C178.595 13.1966 174.139 14.9073 170.97 18.2782C167.801 21.649 166.217 26.3392 166.217 32.273C166.138 35.7464 166.873 39.1902 168.363 42.3288C169.739 45.1691 171.939 47.5293 174.675 49.1021C177.541 50.6958 180.777 51.5038 184.056 51.444C189.674 51.444 194.156 49.7144 197.312 46.2993C200.468 42.8843 202.091 38.1878 202.091 32.273C202.166 28.8059 201.424 25.3697 199.925 22.2424C198.553 19.4267 196.37 17.0856 193.657 15.5196ZM179.789 25.2535C180.653 23.9279 182.086 23.284 184.157 23.284C186.227 23.284 187.685 23.9152 188.576 25.2661C189.548 26.7559 190.04 29.1104 190.04 32.254C190.04 35.3977 189.548 37.809 188.588 39.3303C187.723 40.6875 186.303 41.3503 184.245 41.3503C182.187 41.3503 180.716 40.6812 179.826 39.3114C178.848 37.7775 178.349 35.404 178.349 32.254C178.349 29.1041 178.816 26.7559 179.789 25.2535Z" fill="#2A2A36"></path>
								<path d="M221.47 10.6716C221.602 10.5012 221.987 9.98984 223.363 9.98984C225.016 10.02 226.655 10.301 228.224 10.8231L229.392 11.1892L232.599 1.97297L231.488 1.53741C228.56 0.471953 225.462 -0.0479482 222.347 0.00347349C217.777 0.00347349 214.368 1.03241 212.203 3.05872C210.038 5.08503 208.908 8.31072 208.908 12.578V14.3139L203.731 16.8389V23.4292H208.908V50.8254H220.832V23.4292H228.963V13.8405H220.832V12.9504C220.786 12.1412 221.011 11.3397 221.47 10.6716Z" fill="#2A2A36"></path>
								<path d="M258.632 16.416C255.95 14.2192 252.099 13.1082 247.2 13.1082C242.413 13.0754 237.689 14.2108 233.439 16.416L232.353 16.9841L236.539 25.5123L237.65 25.0136C241.191 23.4291 244.284 22.6275 246.841 22.6275C249.719 22.6275 250.944 23.8142 250.944 26.6043V26.8884L246.184 27.0336C240.73 27.2293 236.715 28.2456 233.944 30.133C231.028 32.1151 229.525 35.183 229.525 39.2735C229.525 43.0926 230.611 46.1163 232.751 48.2436C234.891 50.3709 237.801 51.444 241.456 51.444C243.878 51.531 246.29 51.1006 248.532 50.1815C250.086 49.4296 251.482 48.3859 252.642 47.1073L254.094 50.838H262.786V26.6043C262.817 22.0972 261.416 18.6948 258.632 16.416ZM250.931 34.88V36.4076C250.973 37.1608 250.854 37.9143 250.583 38.6183C250.312 39.3224 249.895 39.9609 249.359 40.4918C248.772 41.0225 248.085 41.431 247.338 41.6932C246.592 41.9555 245.8 42.0664 245.01 42.0194C242.113 42.0194 241.715 40.7191 241.715 39.3051C241.663 38.7098 241.769 38.1113 242.023 37.5703C242.277 37.0293 242.669 36.5651 243.16 36.2246C244.29 35.4608 246.115 35.0315 248.602 34.9621L250.931 34.88Z" fill="#2A2A36"></path>
								<path d="M286.053 23.3029C287.227 23.3083 288.394 23.4826 289.518 23.8205C290.781 24.1867 292.106 24.6727 293.533 25.2472L294.726 25.7269L298.4 16.1761L297.371 15.6711C293.851 13.985 289.987 13.1379 286.084 13.1966C280.308 13.1966 275.776 14.8884 272.626 18.2466C269.476 21.6049 267.904 26.3771 267.904 32.5381C267.904 44.9169 273.901 51.4756 285.257 51.4756C287.327 51.5146 289.394 51.3177 291.418 50.8885C293.19 50.4456 294.877 49.7141 296.412 48.7234L296.999 48.3509V37.2472L295.004 38.5097C293.675 39.4118 292.226 40.1216 290.699 40.6181C289.193 41.0753 287.626 41.3009 286.053 41.2872C283.446 41.2872 279.98 40.3719 279.98 32.4497C279.98 24.2498 283.446 23.3029 286.053 23.3029Z" fill="#2A2A36"></path>
								<path d="M334.041 30.1141C334.041 24.9063 332.551 20.7401 329.622 17.7353C326.693 14.7306 322.539 13.1966 317.338 13.1966C311.896 13.1966 307.553 14.9262 304.435 18.335C301.317 21.7437 299.77 26.5412 299.77 32.5823C299.77 38.5161 301.474 43.1936 304.82 46.4698C308.166 49.746 312.85 51.4251 318.708 51.4251C321.092 51.4594 323.474 51.2478 325.815 50.7939C327.746 50.3866 329.617 49.7354 331.383 48.8559L332.084 48.5087V38.5097L330.285 39.3556C328.51 40.2071 326.65 40.8694 324.736 41.3314C322.9 41.7564 321.021 41.9682 319.137 41.9627C316.795 41.9627 315.053 41.3314 313.809 40.0689C312.748 38.9415 312.083 37.4988 311.915 35.9595H334.009L334.041 30.1141ZM312.199 27.1472C312.373 25.9414 312.878 24.8073 313.658 23.8711C314.134 23.3639 314.716 22.9685 315.364 22.7131C316.011 22.4577 316.707 22.3487 317.401 22.3939C318.102 22.3575 318.804 22.4722 319.457 22.7303C320.111 22.9884 320.701 23.3839 321.188 23.89C321.977 24.8058 322.462 25.9439 322.577 27.1472H312.199Z" fill="#2A2A36"></path>
							</svg>